<svg width="13" height="12" viewBox="0 0 13 12" fill="none" xmlns="http://www.w3.org/2000/svg">
<path d="M0.795288 0.32959C1.00639 0.118554 1.29266 0 1.59116 0C1.88966 0 2.17593 0.118554 2.38703 0.32959L6.36751 4.31007L10.348 0.32959C10.5603 0.124535 10.8447 0.0110701 11.1398 0.0136349C11.435 0.0161998 11.7173 0.134589 11.926 0.343303C12.1347 0.552017 12.2531 0.834358 12.2557 1.12951C12.2583 1.42467 12.1448 1.70902 11.9397 1.92133L7.95926 5.90182L11.9397 9.8823C12.1448 10.0946 12.2583 10.379 12.2557 10.6741C12.2531 10.9693 12.1347 11.2516 11.926 11.4603C11.7173 11.669 11.435 11.7874 11.1398 11.79C10.8447 11.7926 10.5603 11.6791 10.348 11.474L6.36751 7.49356L2.38703 11.474C2.17472 11.6791 1.89037 11.7926 1.59521 11.79C1.30006 11.7874 1.01772 11.669 0.809001 11.4603C0.600287 11.2516 0.481898 10.9693 0.479333 10.6741C0.476768 10.379 0.590233 10.0946 0.795288 9.8823L4.77577 5.90182L0.795288 1.92133C0.584252 1.71023 0.465698 1.42396 0.465698 1.12546C0.465698 0.826966 0.584252 0.540691 0.795288 0.32959V0.32959Z" fill="#EDEBDF"/>
</svg>
