<svg width="97" height="53" viewBox="0 0 97 53" fill="none" xmlns="http://www.w3.org/2000/svg">
<path d="M3.35938 1.84375V13.2188H1.01562V1.84375H3.35938ZM7.89062 6.70312V8.53125H2.71875V6.70312H7.89062ZM8.4375 1.84375V3.67969H2.71875V1.84375H8.4375ZM16.0781 1.84375H18.4141V9.35938C18.4141 10.2344 18.2266 10.9714 17.8516 11.5703C17.4818 12.1693 16.9688 12.6198 16.3125 12.9219C15.6615 13.224 14.9115 13.375 14.0625 13.375C13.2135 13.375 12.4583 13.224 11.7969 12.9219C11.1406 12.6198 10.625 12.1693 10.25 11.5703C9.88021 10.9714 9.69531 10.2344 9.69531 9.35938V1.84375H12.0391V9.35938C12.0391 9.86979 12.1198 10.2865 12.2812 10.6094C12.4427 10.9323 12.6745 11.1693 12.9766 11.3203C13.2839 11.4714 13.6458 11.5469 14.0625 11.5469C14.4896 11.5469 14.8516 11.4714 15.1484 11.3203C15.4505 11.1693 15.6797 10.9323 15.8359 10.6094C15.9974 10.2865 16.0781 9.86979 16.0781 9.35938V1.84375ZM25.4297 1.84375V13.2188H23.0938V1.84375H25.4297ZM28.9297 1.84375V3.67969H19.6484V1.84375H28.9297ZM36.5469 1.84375H38.8828V9.35938C38.8828 10.2344 38.6953 10.9714 38.3203 11.5703C37.9505 12.1693 37.4375 12.6198 36.7812 12.9219C36.1302 13.224 35.3802 13.375 34.5312 13.375C33.6823 13.375 32.9271 13.224 32.2656 12.9219C31.6094 12.6198 31.0938 12.1693 30.7188 11.5703C30.349 10.9714 30.1641 10.2344 30.1641 9.35938V1.84375H32.5078V9.35938C32.5078 9.86979 32.5885 10.2865 32.75 10.6094C32.9115 10.9323 33.1432 11.1693 33.4453 11.3203C33.7526 11.4714 34.1146 11.5469 34.5312 11.5469C34.9583 11.5469 35.3203 11.4714 35.6172 11.3203C35.9193 11.1693 36.1484 10.9323 36.3047 10.6094C36.4661 10.2865 36.5469 9.86979 36.5469 9.35938V1.84375ZM40.8125 1.84375H45.0547C45.9245 1.84375 46.6719 1.97396 47.2969 2.23438C47.9271 2.49479 48.4115 2.88021 48.75 3.39062C49.0885 3.90104 49.2578 4.52865 49.2578 5.27344C49.2578 5.88281 49.1536 6.40625 48.9453 6.84375C48.7422 7.27604 48.4531 7.63802 48.0781 7.92969C47.7083 8.21615 47.2734 8.44531 46.7734 8.61719L46.0312 9.00781H42.3438L42.3281 7.17969H45.0703C45.4818 7.17969 45.8229 7.10677 46.0938 6.96094C46.3646 6.8151 46.5677 6.61198 46.7031 6.35156C46.8438 6.09115 46.9141 5.78906 46.9141 5.44531C46.9141 5.08073 46.8464 4.76562 46.7109 4.5C46.5755 4.23438 46.3698 4.03125 46.0938 3.89062C45.8177 3.75 45.4714 3.67969 45.0547 3.67969H43.1562V13.2188H40.8125V1.84375ZM47.1719 13.2188L44.5781 8.14844L47.0547 8.13281L49.6797 13.1094V13.2188H47.1719ZM58.6953 11.3906V13.2188H52.6406V11.3906H58.6953ZM53.4062 1.84375V13.2188H51.0625V1.84375H53.4062ZM57.9062 6.47656V8.25781H52.6406V6.47656H57.9062ZM58.6875 1.84375V3.67969H52.6406V1.84375H58.6875ZM60.0312 12.1328C60.0312 11.7995 60.1458 11.5208 60.375 11.2969C60.6094 11.0729 60.9193 10.9609 61.3047 10.9609C61.6901 10.9609 61.9974 11.0729 62.2266 11.2969C62.4609 11.5208 62.5781 11.7995 62.5781 12.1328C62.5781 12.4661 62.4609 12.7448 62.2266 12.9688C61.9974 13.1927 61.6901 13.3047 61.3047 13.3047C60.9193 13.3047 60.6094 13.1927 60.375 12.9688C60.1458 12.7448 60.0312 12.4661 60.0312 12.1328ZM8.64844 30.3906V32.2188H2.59375V30.3906H8.64844ZM3.35938 20.8438V32.2188H1.01562V20.8438H3.35938ZM7.85938 25.4766V27.2578H2.59375V25.4766H7.85938ZM8.64062 20.8438V22.6797H2.59375V20.8438H8.64062ZM11.9453 20.8438L14.0859 24.8125L16.2266 20.8438H18.9062L15.6016 26.4844L18.9922 32.2188H16.2891L14.0859 28.1719L11.8828 32.2188H9.16406L12.5625 26.4844L9.25 20.8438H11.9453ZM24.6016 28.1641H21.7031V26.3359H24.6016C25.0495 26.3359 25.4141 26.263 25.6953 26.1172C25.9766 25.9661 26.1823 25.7578 26.3125 25.4922C26.4427 25.2266 26.5078 24.9271 26.5078 24.5938C26.5078 24.2552 26.4427 23.9401 26.3125 23.6484C26.1823 23.3568 25.9766 23.1224 25.6953 22.9453C25.4141 22.7682 25.0495 22.6797 24.6016 22.6797H22.5156V32.2188H20.1719V20.8438H24.6016C25.4922 20.8438 26.2552 21.0052 26.8906 21.3281C27.5312 21.6458 28.0208 22.0859 28.3594 22.6484C28.6979 23.2109 28.8672 23.8542 28.8672 24.5781C28.8672 25.3125 28.6979 25.9479 28.3594 26.4844C28.0208 27.0208 27.5312 27.4349 26.8906 27.7266C26.2552 28.0182 25.4922 28.1641 24.6016 28.1641ZM38.1172 30.3906V32.2188H32.0625V30.3906H38.1172ZM32.8281 20.8438V32.2188H30.4844V20.8438H32.8281ZM37.3281 25.4766V27.2578H32.0625V25.4766H37.3281ZM38.1094 20.8438V22.6797H32.0625V20.8438H38.1094ZM39.4844 20.8438H43.7266C44.5964 20.8438 45.3438 20.974 45.9688 21.2344C46.599 21.4948 47.0833 21.8802 47.4219 22.3906C47.7604 22.901 47.9297 23.5286 47.9297 24.2734C47.9297 24.8828 47.8255 25.4062 47.6172 25.8438C47.4141 26.276 47.125 26.638 46.75 26.9297C46.3802 27.2161 45.9453 27.4453 45.4453 27.6172L44.7031 28.0078H41.0156L41 26.1797H43.7422C44.1536 26.1797 44.4948 26.1068 44.7656 25.9609C45.0365 25.8151 45.2396 25.612 45.375 25.3516C45.5156 25.0911 45.5859 24.7891 45.5859 24.4453C45.5859 24.0807 45.5182 23.7656 45.3828 23.5C45.2474 23.2344 45.0417 23.0312 44.7656 22.8906C44.4896 22.75 44.1432 22.6797 43.7266 22.6797H41.8281V32.2188H39.4844V20.8438ZM45.8438 32.2188L43.25 27.1484L45.7266 27.1328L48.3516 32.1094V32.2188H45.8438ZM52.2266 20.8438V32.2188H49.8906V20.8438H52.2266ZM62.0547 30.3906V32.2188H56V30.3906H62.0547ZM56.7656 20.8438V32.2188H54.4219V20.8438H56.7656ZM61.2656 25.4766V27.2578H56V25.4766H61.2656ZM62.0469 20.8438V22.6797H56V20.8438H62.0469ZM72.6797 20.8438V32.2188H70.3359L65.7656 24.5938V32.2188H63.4219V20.8438H65.7656L70.3438 28.4766V20.8438H72.6797ZM81.3125 28.4453H83.6484C83.6016 29.2109 83.3906 29.8906 83.0156 30.4844C82.6458 31.0781 82.1276 31.5417 81.4609 31.875C80.7995 32.2083 80.0026 32.375 79.0703 32.375C78.3411 32.375 77.6875 32.25 77.1094 32C76.5312 31.7448 76.0365 31.3802 75.625 30.9062C75.2188 30.4323 74.9089 29.8594 74.6953 29.1875C74.4818 28.5156 74.375 27.763 74.375 26.9297V26.1406C74.375 25.3073 74.4844 24.5547 74.7031 23.8828C74.9271 23.2057 75.2448 22.6302 75.6562 22.1562C76.0729 21.6823 76.5703 21.3177 77.1484 21.0625C77.7266 20.8073 78.3724 20.6797 79.0859 20.6797C80.0339 20.6797 80.8333 20.8516 81.4844 21.1953C82.1406 21.5391 82.6484 22.013 83.0078 22.6172C83.3724 23.2214 83.5911 23.9089 83.6641 24.6797H81.3203C81.2943 24.2214 81.2031 23.8333 81.0469 23.5156C80.8906 23.1927 80.6536 22.9505 80.3359 22.7891C80.0234 22.6224 79.6068 22.5391 79.0859 22.5391C78.6953 22.5391 78.3542 22.612 78.0625 22.7578C77.7708 22.9036 77.526 23.125 77.3281 23.4219C77.1302 23.7188 76.9818 24.0938 76.8828 24.5469C76.7891 24.9948 76.7422 25.5208 76.7422 26.125V26.9297C76.7422 27.5182 76.7865 28.0365 76.875 28.4844C76.9635 28.9271 77.099 29.3021 77.2812 29.6094C77.4688 29.9115 77.7083 30.1406 78 30.2969C78.2969 30.4479 78.6536 30.5234 79.0703 30.5234C79.5599 30.5234 79.9635 30.4453 80.2812 30.2891C80.599 30.1328 80.8411 29.901 81.0078 29.5938C81.1797 29.2865 81.2812 28.9036 81.3125 28.4453ZM92.8203 30.3906V32.2188H86.7656V30.3906H92.8203ZM87.5312 20.8438V32.2188H85.1875V20.8438H87.5312ZM92.0312 25.4766V27.2578H86.7656V25.4766H92.0312ZM92.8125 20.8438V22.6797H86.7656V20.8438H92.8125ZM94.1562 31.1328C94.1562 30.7995 94.2708 30.5208 94.5 30.2969C94.7344 30.0729 95.0443 29.9609 95.4297 29.9609C95.8151 29.9609 96.1224 30.0729 96.3516 30.2969C96.5859 30.5208 96.7031 30.7995 96.7031 31.1328C96.7031 31.4661 96.5859 31.7448 96.3516 31.9688C96.1224 32.1927 95.8151 32.3047 95.4297 32.3047C95.0443 32.3047 94.7344 32.1927 94.5 31.9688C94.2708 31.7448 94.1562 31.4661 94.1562 31.1328ZM8.32812 49.3906V51.2188H2.60156V49.3906H8.32812ZM3.35938 39.8438V51.2188H1.01562V39.8438H3.35938ZM14.4531 41.7891L11.3594 51.2188H8.86719L13.0938 39.8438H14.6797L14.4531 41.7891ZM17.0234 51.2188L13.9219 41.7891L13.6719 39.8438H15.2734L19.5234 51.2188H17.0234ZM16.8828 46.9844V48.8203H10.875V46.9844H16.8828ZM25.0312 46.2266H22.1094L22.0938 44.6172H24.5469C24.9792 44.6172 25.3333 44.5625 25.6094 44.4531C25.8854 44.3385 26.0911 44.1745 26.2266 43.9609C26.3672 43.7422 26.4375 43.4766 26.4375 43.1641C26.4375 42.8099 26.3698 42.5234 26.2344 42.3047C26.1042 42.0859 25.8984 41.9271 25.6172 41.8281C25.3411 41.7292 24.9844 41.6797 24.5469 41.6797H22.9219V51.2188H20.5781V39.8438H24.5469C25.2083 39.8438 25.7995 39.9062 26.3203 40.0312C26.8464 40.1562 27.2917 40.3464 27.6562 40.6016C28.0208 40.8568 28.2995 41.1797 28.4922 41.5703C28.6849 41.9557 28.7812 42.4141 28.7812 42.9453C28.7812 43.4141 28.6745 43.8464 28.4609 44.2422C28.2526 44.638 27.9219 44.9609 27.4688 45.2109C27.0208 45.4609 26.4349 45.599 25.7109 45.625L25.0312 46.2266ZM24.9297 51.2188H21.4688L22.3828 49.3906H24.9297C25.3411 49.3906 25.6771 49.3255 25.9375 49.1953C26.1979 49.0599 26.3906 48.8776 26.5156 48.6484C26.6406 48.4193 26.7031 48.1562 26.7031 47.8594C26.7031 47.526 26.6458 47.237 26.5312 46.9922C26.4219 46.7474 26.2448 46.5599 26 46.4297C25.7552 46.2943 25.4323 46.2266 25.0312 46.2266H22.7734L22.7891 44.6172H25.6016L26.1406 45.25C26.8333 45.2396 27.3906 45.362 27.8125 45.6172C28.2396 45.8672 28.5495 46.1927 28.7422 46.5938C28.9401 46.9948 29.0391 47.4245 29.0391 47.8828C29.0391 48.612 28.8802 49.2266 28.5625 49.7266C28.2448 50.2214 27.7786 50.5938 27.1641 50.8438C26.5547 51.0938 25.8099 51.2188 24.9297 51.2188ZM30.7656 50.1328C30.7656 49.7995 30.8802 49.5208 31.1094 49.2969C31.3438 49.0729 31.6536 48.9609 32.0391 48.9609C32.4245 48.9609 32.7318 49.0729 32.9609 49.2969C33.1953 49.5208 33.3125 49.7995 33.3125 50.1328C33.3125 50.4661 33.1953 50.7448 32.9609 50.9688C32.7318 51.1927 32.4245 51.3047 32.0391 51.3047C31.6536 51.3047 31.3438 51.1927 31.1094 50.9688C30.8802 50.7448 30.7656 50.4661 30.7656 50.1328Z" fill="#EDEBDF"/>
</svg>
