<svg width="24" height="25" viewBox="0 0 24 25" fill="none" xmlns="http://www.w3.org/2000/svg">
<path d="M20.05 11.2188H3.95C3.42533 11.2188 3 11.6441 3 12.1687V12.2688C3 12.7934 3.42533 13.2188 3.95 13.2188H20.05C20.5747 13.2188 21 12.7934 21 12.2688V12.1687C21 11.6441 20.5747 11.2188 20.05 11.2188Z" fill="#EDEBDF"/>
<path d="M20.05 16.2188H3.95C3.42533 16.2188 3 16.6441 3 17.1688V17.2687C3 17.7934 3.42533 18.2188 3.95 18.2188H20.05C20.5747 18.2188 21 17.7934 21 17.2687V17.1688C21 16.6441 20.5747 16.2188 20.05 16.2188Z" fill="#EDEBDF"/>
<path d="M20.05 6.21875H3.95C3.42533 6.21875 3 6.64408 3 7.16875V7.26875C3 7.79342 3.42533 8.21875 3.95 8.21875H20.05C20.5747 8.21875 21 7.79342 21 7.26875V7.16875C21 6.64408 20.5747 6.21875 20.05 6.21875Z" fill="#EDEBDF"/>
</svg>
