<svg width="150" height="120" viewBox="0 0 150 120" fill="none" xmlns="http://www.w3.org/2000/svg">
<g clip-path="url(#clip0_73_442)">
<path d="M138.547 30.3233V20.3961H127.905V10.4672H117.261V0.540039H106.618H95.976V10.4672H85.3318V20.3961H74.6895H64.0471V10.4672H53.4048V0.540039H42.7606H32.1183V10.4672H21.476V20.3961H10.8318V30.3233H0.189453V40.2504V50.1793V60.1065H10.8318V70.0336H21.476V79.9626H32.1183V89.8897H42.7606V99.8169H53.4048V109.744H64.0471V119.54H74.6895H85.3318V109.744H95.976V99.8169H106.618V89.8897H117.261V79.9626H127.905V70.0336H138.547V60.1065H149.189V50.1793V40.2504V30.3233H138.547Z" fill="#293232"/>
</g>
<defs>
<clipPath id="clip0_73_442">
<rect width="149" height="119" fill="white" transform="translate(0.189453 0.540039)"/>
</clipPath>
</defs>
</svg>
