<svg width="34" height="34" viewBox="0 0 34 34" fill="none" xmlns="http://www.w3.org/2000/svg">
<path d="M17.0968 22.1856C20.0142 22.1856 22.3791 19.8207 22.3791 16.9034C22.3791 13.986 20.0142 11.6211 17.0968 11.6211C14.1795 11.6211 11.8146 13.986 11.8146 16.9034C11.8146 19.8207 14.1795 22.1856 17.0968 22.1856Z" stroke="black" stroke-width="2.39444" stroke-miterlimit="10"/>
<path d="M22.9072 4.75391H11.2862C7.78545 4.75391 4.94751 7.59185 4.94751 11.0926V22.7136C4.94751 26.2144 7.78545 29.0523 11.2862 29.0523H22.9072C26.408 29.0523 29.2459 26.2144 29.2459 22.7136V11.0926C29.2459 7.59185 26.408 4.75391 22.9072 4.75391Z" stroke="black" stroke-width="2.39444" stroke-linecap="round" stroke-linejoin="round"/>
<path d="M23.9637 11.6205C24.8389 11.6205 25.5484 10.911 25.5484 10.0359C25.5484 9.16066 24.8389 8.45117 23.9637 8.45117C23.0885 8.45117 22.379 9.16066 22.379 10.0359C22.379 10.911 23.0885 11.6205 23.9637 11.6205Z" fill="black"/>
</svg>
