<svg width="87" height="116" viewBox="0 0 87 116" fill="none" xmlns="http://www.w3.org/2000/svg">
<path d="M43.4461 0.541992C67.3069 0.541992 86.6461 19.2404 86.6461 42.302C86.6461 54.3764 81.2821 65.4572 70.7773 75.3788C70.3222 75.8082 69.9659 76.3315 69.7333 76.9124L69.5461 77.4956L62.8069 105.698C61.4821 111.249 56.5789 115.274 50.7829 115.706L49.7461 115.742H37.1461C31.2565 115.742 26.0941 112.027 24.3589 106.656L24.0853 105.698L17.3533 77.5028C17.1609 76.6907 16.7355 75.9524 16.1293 75.3788C6.12129 65.9324 0.771694 55.4348 0.289294 44.0228L0.246094 42.302L0.267692 40.9268C1.02369 18.4988 20.0677 0.541992 43.4461 0.541992ZM58.1701 94.142H28.7221L31.0189 103.747L31.2061 104.438C31.9045 106.598 33.9133 108.196 36.3325 108.492L37.1461 108.542H49.4797L50.2429 108.52C51.3972 108.454 52.5097 108.065 53.4531 107.396C54.3965 106.728 55.1329 105.807 55.5781 104.74L55.8013 104.02L58.1701 94.142ZM43.4461 7.74199C24.4957 7.74199 8.97249 21.8036 7.55409 39.5228L7.46769 41.0492L7.44609 42.1508L7.4749 43.7132C7.8781 53.102 12.3277 61.8932 21.0685 70.1444C22.4221 71.426 23.4445 73.01 24.0493 74.7524L24.3589 75.8324L27.0013 86.942H59.8981L62.6845 75.314L63.0517 74.234C63.6709 72.686 64.6213 71.2892 65.8309 70.1444C75.0037 61.49 79.4461 52.2452 79.4461 42.302C79.4461 23.2724 63.3829 7.74199 43.4461 7.74199Z" fill="#6142DA"/>
</svg>
