<svg width="234" height="234" viewBox="0 0 234 234" fill="none" xmlns="http://www.w3.org/2000/svg">
<rect x="23.4375" y="163.808" width="23.3941" height="23.3941" fill="#6142DA"/>
<rect x="23.4375" y="163.808" width="23.3941" height="23.3941" stroke="black"/>
<rect x="46.832" y="187.202" width="23.3941" height="23.3941" fill="#6142DA"/>
<rect x="46.832" y="187.202" width="23.3941" height="23.3941" stroke="black"/>
<rect x="70.2266" y="210.597" width="23.3941" height="23.3941" fill="#6142DA"/>
<rect x="70.2266" y="210.597" width="23.3941" height="23.3941" stroke="black"/>
<rect x="93.6201" y="210.597" width="23.3941" height="23.3941" fill="#6142DA"/>
<rect x="93.6201" y="210.597" width="23.3941" height="23.3941" stroke="black"/>
<rect x="105.317" y="172.835" width="23.3941" height="23.3941" fill="#6142DA"/>
<rect x="105.317" y="172.835" width="23.3941" height="23.3941" stroke="black"/>
<rect x="133.185" y="100.809" width="30.6176" height="27.9073" fill="#6142DA"/>
<rect x="133.185" y="100.809" width="30.6176" height="27.9073" stroke="black"/>
<rect x="70.2266" y="98.1377" width="30.6176" height="27.9073" fill="#6142DA"/>
<rect x="70.2266" y="98.1377" width="30.6176" height="27.9073" stroke="black"/>
<rect x="133.185" y="72.9004" width="30.6176" height="27.9073" fill="#6142DA"/>
<rect x="133.185" y="72.9004" width="30.6176" height="27.9073" stroke="black"/>
<rect x="70.2266" y="70.2295" width="30.6176" height="27.9073" fill="#6142DA"/>
<rect x="70.2266" y="70.2295" width="30.6176" height="27.9073" stroke="black"/>
<rect x="81.9229" y="172.835" width="23.3941" height="23.3941" fill="#6142DA"/>
<rect x="81.9229" y="172.835" width="23.3941" height="23.3941" stroke="black"/>
<rect x="58.5293" y="149.44" width="23.3941" height="23.3941" fill="#6142DA"/>
<rect x="58.5293" y="149.44" width="23.3941" height="23.3941" stroke="black"/>
<rect x="35.1348" y="126.046" width="23.3941" height="23.3941" fill="#6142DA"/>
<rect x="35.1348" y="126.046" width="23.3941" height="23.3941" stroke="black"/>
<rect x="117.014" y="210.597" width="23.3941" height="23.3941" fill="#6142DA"/>
<rect x="117.014" y="210.597" width="23.3941" height="23.3941" stroke="black"/>
<rect x="128.711" y="172.835" width="23.3941" height="23.3941" fill="#6142DA"/>
<rect x="128.711" y="172.835" width="23.3941" height="23.3941" stroke="black"/>
<rect x="152.105" y="149.44" width="23.3941" height="23.3941" fill="#6142DA"/>
<rect x="152.105" y="149.44" width="23.3941" height="23.3941" stroke="black"/>
<rect x="175.499" y="126.046" width="23.3941" height="23.3941" fill="#6142DA"/>
<rect x="175.499" y="126.046" width="23.3941" height="23.3941" stroke="black"/>
<rect x="163.803" y="187.202" width="23.3941" height="23.3941" fill="#6142DA"/>
<rect x="163.803" y="187.202" width="23.3941" height="23.3941" stroke="black"/>
<rect x="140.408" y="210.597" width="23.3941" height="23.3941" fill="#6142DA"/>
<rect x="140.408" y="210.597" width="23.3941" height="23.3941" stroke="black"/>
<rect x="187.196" y="163.808" width="23.3941" height="23.3941" fill="#6142DA"/>
<rect x="187.196" y="163.808" width="23.3941" height="23.3941" stroke="black"/>
<rect x="210.59" y="140.413" width="23.3941" height="23.3941" fill="#6142DA"/>
<rect x="210.59" y="140.413" width="23.3941" height="23.3941" stroke="black"/>
<rect x="210.59" y="117.019" width="23.3941" height="23.3941" fill="#6142DA"/>
<rect x="210.59" y="117.019" width="23.3941" height="23.3941" stroke="black"/>
<rect x="210.59" y="93.624" width="23.3941" height="23.3941" fill="#6142DA"/>
<rect x="210.59" y="93.624" width="23.3941" height="23.3941" stroke="black"/>
<rect x="210.59" y="70.2295" width="23.3941" height="23.3941" fill="#6142DA"/>
<rect x="210.59" y="70.2295" width="23.3941" height="23.3941" stroke="black"/>
<rect x="187.196" y="46.835" width="23.3941" height="23.3941" fill="#6142DA"/>
<rect x="187.196" y="46.835" width="23.3941" height="23.3941" stroke="black"/>
<rect x="163.803" y="23.4404" width="23.3941" height="23.3941" fill="#6142DA"/>
<rect x="163.803" y="23.4404" width="23.3941" height="23.3941" stroke="black"/>
<rect x="140.408" y="0.0458984" width="23.3941" height="23.3941" fill="#6142DA"/>
<rect x="140.408" y="0.0458984" width="23.3941" height="23.3941" stroke="black"/>
<rect x="117.014" y="0.0458984" width="23.3941" height="23.3941" fill="#6142DA"/>
<rect x="117.014" y="0.0458984" width="23.3941" height="23.3941" stroke="black"/>
<rect x="93.6201" y="0.0458984" width="23.3941" height="23.3941" fill="#6142DA"/>
<rect x="93.6201" y="0.0458984" width="23.3941" height="23.3941" stroke="black"/>
<rect x="70.2266" y="0.0458984" width="23.3941" height="23.3941" fill="#6142DA"/>
<rect x="70.2266" y="0.0458984" width="23.3941" height="23.3941" stroke="black"/>
<rect x="46.832" y="23.4404" width="23.3941" height="23.3941" fill="#6142DA"/>
<rect x="46.832" y="23.4404" width="23.3941" height="23.3941" stroke="black"/>
<rect x="23.4375" y="46.835" width="23.3941" height="23.3941" fill="#6142DA"/>
<rect x="23.4375" y="46.835" width="23.3941" height="23.3941" stroke="black"/>
<rect x="0.0439453" y="70.2295" width="23.3941" height="23.3941" fill="#6142DA"/>
<rect x="0.0439453" y="70.2295" width="23.3941" height="23.3941" stroke="black"/>
<rect x="0.0439453" y="93.624" width="23.3941" height="23.3941" fill="#6142DA"/>
<rect x="0.0439453" y="93.624" width="23.3941" height="23.3941" stroke="black"/>
<rect x="0.0439453" y="117.019" width="23.3941" height="23.3941" fill="#6142DA"/>
<rect x="0.0439453" y="117.019" width="23.3941" height="23.3941" stroke="black"/>
<rect x="0.0439453" y="140.413" width="23.3941" height="23.3941" fill="#6142DA"/>
<rect x="0.0439453" y="140.413" width="23.3941" height="23.3941" stroke="black"/>
</svg>
