<svg width="72" height="142" viewBox="0 0 72 142" fill="none" xmlns="http://www.w3.org/2000/svg">
<rect x="0.662598" y="0.110352" width="70.6744" height="141.78" rx="10" fill="#1F1F1F"/>
<path d="M6 71H66V131C66 133.761 63.7614 136 61 136H11C8.23858 136 6 133.761 6 131V71Z" fill="#C8C9AF"/>
<path d="M6 11C6 8.23858 8.23858 6 11 6H61C63.7614 6 66 8.23858 66 11V71H6V11Z" fill="#EDEBDF"/>
<path d="M26.5778 109.336C25.2818 109.336 24.1718 109.054 23.2478 108.49C22.3238 107.92 21.6128 107.128 21.1148 106.114C20.6228 105.1 20.3768 103.924 20.3768 102.586C20.3768 101.248 20.6228 100.072 21.1148 99.0584C21.6128 98.0444 22.3238 97.2554 23.2478 96.6914C24.1718 96.1214 25.2818 95.8364 26.5778 95.8364C27.8738 95.8364 28.9838 96.1214 29.9078 96.6914C30.8378 97.2554 31.5488 98.0444 32.0408 99.0584C32.5388 100.072 32.7878 101.248 32.7878 102.586C32.7878 103.924 32.5388 105.1 32.0408 106.114C31.5488 107.128 30.8378 107.92 29.9078 108.49C28.9838 109.054 27.8738 109.336 26.5778 109.336ZM26.5778 107.293C27.4478 107.299 28.1708 107.107 28.7468 106.717C29.3288 106.327 29.7638 105.778 30.0518 105.07C30.3458 104.362 30.4928 103.534 30.4928 102.586C30.4928 101.638 30.3458 100.816 30.0518 100.12C29.7638 99.4184 29.3288 98.8724 28.7468 98.4824C28.1708 98.0924 27.4478 97.8914 26.5778 97.8794C25.7078 97.8734 24.9848 98.0654 24.4088 98.4554C23.8328 98.8454 23.3978 99.3944 23.1038 100.102C22.8158 100.81 22.6718 101.638 22.6718 102.586C22.6718 103.534 22.8158 104.359 23.1038 105.061C23.3918 105.757 23.8238 106.3 24.3998 106.69C24.9818 107.08 25.7078 107.281 26.5778 107.293ZM34.5792 109.066V96.1064H42.3822V98.2754H36.7482V101.506H41.3022V103.666H36.7482V109.066H34.5792ZM44.0011 109.066V96.1064H51.8041V98.2754H46.1701V101.506H50.7241V103.666H46.1701V109.066H44.0011Z" fill="#6142DA"/>
<path d="M29.5397 43.23C28.2437 43.23 27.1337 42.948 26.2097 42.384C25.2857 41.814 24.5747 41.022 24.0767 40.008C23.5847 38.994 23.3387 37.818 23.3387 36.48C23.3387 35.142 23.5847 33.966 24.0767 32.952C24.5747 31.938 25.2857 31.149 26.2097 30.585C27.1337 30.015 28.2437 29.73 29.5397 29.73C30.8357 29.73 31.9457 30.015 32.8697 30.585C33.7997 31.149 34.5107 31.938 35.0027 32.952C35.5007 33.966 35.7497 35.142 35.7497 36.48C35.7497 37.818 35.5007 38.994 35.0027 40.008C34.5107 41.022 33.7997 41.814 32.8697 42.384C31.9457 42.948 30.8357 43.23 29.5397 43.23ZM29.5397 41.187C30.4097 41.193 31.1327 41.001 31.7087 40.611C32.2907 40.221 32.7257 39.672 33.0137 38.964C33.3077 38.256 33.4547 37.428 33.4547 36.48C33.4547 35.532 33.3077 34.71 33.0137 34.014C32.7257 33.312 32.2907 32.766 31.7087 32.376C31.1327 31.986 30.4097 31.785 29.5397 31.773C28.6697 31.767 27.9467 31.959 27.3707 32.349C26.7947 32.739 26.3597 33.288 26.0657 33.996C25.7777 34.704 25.6337 35.532 25.6337 36.48C25.6337 37.428 25.7777 38.253 26.0657 38.955C26.3537 39.651 26.7857 40.194 27.3617 40.584C27.9437 40.974 28.6697 41.175 29.5397 41.187ZM37.5411 42.96V30H39.7371L45.7491 39.135V30H47.9451V42.96H45.7491L39.7371 33.825V42.96H37.5411Z" fill="#6142DA"/>
</svg>
