<svg width="34" height="34" viewBox="0 0 34 34" fill="none" xmlns="http://www.w3.org/2000/svg">
<path d="M22.1853 13.9987C24.3405 15.5461 26.9273 16.3776 29.5805 16.3757V11.0934C27.6191 11.0934 25.7381 10.3143 24.3513 8.92742C22.9644 7.54055 22.1853 5.65956 22.1853 3.69824H16.903V20.6015C16.903 21.2632 16.7254 21.9128 16.3887 22.4824C16.0521 23.0521 15.5687 23.521 14.9891 23.8402C14.4095 24.1594 13.7548 24.3172 13.0934 24.2971C12.432 24.2771 11.7881 24.0799 11.2289 23.7262C10.6697 23.3725 10.2156 22.8752 9.91407 22.2862C9.61254 21.6972 9.47459 21.0381 9.51462 20.3776C9.55465 19.7171 9.77119 19.0794 10.1416 18.5311C10.5121 17.9829 11.0229 17.544 11.6208 17.2605V11.7669C9.93912 12.0684 8.37838 12.8433 7.12175 14.0008C5.86512 15.1582 4.96474 16.6501 4.52631 18.3014C4.08788 19.9526 4.12959 21.6946 4.64654 23.323C5.1635 24.9514 6.13424 26.3985 7.44483 27.4944C8.75541 28.5904 10.3514 29.2898 12.0456 29.5104C13.7397 29.7311 15.4617 29.4639 17.0093 28.7402C18.5569 28.0165 19.8659 26.8664 20.7827 25.4248C21.6996 23.9832 22.1861 22.3099 22.1853 20.6015V13.9987Z" stroke="black" stroke-width="2.39044" stroke-linecap="round" stroke-linejoin="round"/>
</svg>
