<svg width="35" height="34" viewBox="0 0 35 34" fill="none" xmlns="http://www.w3.org/2000/svg">
<g clip-path="url(#clip0_248_362)">
<path d="M20.6677 16.5655L15.3431 19.6081V13.5229L20.6677 16.5655Z" fill="black" stroke="black" stroke-width="2.46134" stroke-linecap="round" stroke-linejoin="round"/>
<path d="M2.4967 17.9617V15.8091C2.4967 11.4049 2.4967 9.20209 3.87347 7.78577C5.25176 6.36792 7.42113 6.30707 11.7583 6.18385C13.8121 6.12604 15.9115 6.08496 17.7096 6.08496C19.5063 6.08496 21.6057 6.12604 23.6609 6.18385C27.9981 6.30707 30.1675 6.36792 31.5443 7.78577C32.9225 9.20209 32.9225 11.4064 32.9225 15.8091V17.9617C32.9225 22.3673 32.9225 24.5687 31.5458 25.9865C30.1675 27.4028 27.9996 27.4652 23.6609 27.5869C21.6072 27.6462 19.5078 27.6873 17.7096 27.6873C15.7255 27.6813 13.7415 27.6479 11.7583 27.5869C7.42113 27.4652 5.25176 27.4043 3.87347 25.9865C2.4967 24.5687 2.4967 22.3658 2.4967 17.9632V17.9617Z" stroke="black" stroke-width="2.46134"/>
</g>
<defs>
<clipPath id="clip0_248_362">
<rect x="0.806519" width="33.8065" height="33.8065" fill="white"/>
</clipPath>
</defs>
</svg>
