<svg width="669" height="324" viewBox="0 0 669 324" fill="none" xmlns="http://www.w3.org/2000/svg">
<path d="M133.663 119.955H146.763V176.877C146.763 182.934 145.34 188.301 142.495 192.977C139.649 197.626 135.649 201.288 130.493 203.964C125.338 206.613 119.295 207.937 112.364 207.937C105.462 207.937 99.4332 206.613 94.2777 203.964C89.1222 201.288 85.1217 197.626 82.2763 192.977C79.4309 188.301 78.0082 182.934 78.0082 176.877V119.955H91.0661V175.82C91.0661 179.736 91.9253 183.216 93.6438 186.258C95.3905 189.301 97.8556 191.695 101.039 193.442C104.223 195.161 107.998 196.02 112.364 196.02C116.759 196.02 120.548 195.161 123.732 193.442C126.944 191.695 129.395 189.301 131.085 186.258C132.803 183.216 133.663 179.736 133.663 175.82V119.955ZM162.177 206.5V119.955H193.026C199.759 119.955 205.337 121.18 209.761 123.631C214.184 126.082 217.494 129.435 219.691 133.689C221.889 137.914 222.987 142.676 222.987 147.972C222.987 153.297 221.875 158.086 219.649 162.34C217.452 166.566 214.127 169.918 209.676 172.397C205.253 174.848 199.689 176.074 192.984 176.074H171.77V165.002H191.801C196.055 165.002 199.506 164.27 202.154 162.805C204.802 161.312 206.746 159.283 207.986 156.719C209.225 154.156 209.845 151.24 209.845 147.972C209.845 144.704 209.225 141.802 207.986 139.267C206.746 136.731 204.788 134.745 202.112 133.308C199.464 131.871 195.97 131.153 191.632 131.153H175.235V206.5H162.177ZM234.726 206.5V119.955H265.574C272.308 119.955 277.886 121.18 282.309 123.631C286.732 126.082 290.042 129.435 292.239 133.689C294.437 137.914 295.536 142.676 295.536 147.972C295.536 153.297 294.423 158.086 292.197 162.34C290 166.566 286.675 169.918 282.224 172.397C277.801 174.848 272.237 176.074 265.532 176.074H244.318V165.002H264.349C268.603 165.002 272.054 164.27 274.702 162.805C277.35 161.312 279.294 159.283 280.534 156.719C281.773 154.156 282.393 151.24 282.393 147.972C282.393 144.704 281.773 141.802 280.534 139.267C279.294 136.731 277.336 134.745 274.66 133.308C272.012 131.871 268.518 131.153 264.18 131.153H247.783V206.5H234.726ZM303.006 131.195V119.955H369.985V131.195H342.982V206.5H329.967V131.195H303.006ZM378.301 206.5H364.44L395.584 119.955H410.671L441.815 206.5H427.954L403.487 135.675H402.811L378.301 206.5ZM380.625 172.609H425.588V183.596H380.625V172.609ZM390.725 109.77C388.724 109.77 386.978 109.038 385.485 107.573C383.991 106.08 383.245 104.361 383.245 102.417C383.245 100.304 383.991 98.5436 385.485 97.1349C386.978 95.7263 388.724 95.022 390.725 95.022C392.838 95.022 394.598 95.7263 396.007 97.1349C397.444 98.5436 398.162 100.304 398.162 102.417C398.162 104.361 397.444 106.08 396.007 107.573C394.598 109.038 392.838 109.77 390.725 109.77ZM415.573 109.77C413.572 109.77 411.826 109.038 410.333 107.573C408.839 106.08 408.093 104.361 408.093 102.417C408.093 100.304 408.839 98.5436 410.333 97.1349C411.826 95.7263 413.572 95.022 415.573 95.022C417.686 95.022 419.446 95.7263 420.855 97.1349C422.292 98.5436 423.01 100.304 423.01 102.417C423.01 104.361 422.292 106.08 420.855 107.573C419.446 109.038 417.686 109.77 415.573 109.77ZM518.557 148.099H505.373C504.866 145.281 503.922 142.802 502.542 140.661C501.161 138.52 499.471 136.703 497.47 135.21C495.47 133.717 493.231 132.59 490.751 131.829C488.3 131.069 485.694 130.688 482.934 130.688C477.947 130.688 473.482 131.942 469.538 134.449C465.622 136.957 462.523 140.633 460.241 145.479C457.987 150.324 456.86 156.241 456.86 163.227C456.86 170.27 457.987 176.215 460.241 181.06C462.523 185.906 465.636 189.568 469.58 192.048C473.524 194.527 477.961 195.766 482.891 195.766C485.624 195.766 488.216 195.4 490.667 194.668C493.146 193.907 495.386 192.794 497.386 191.329C499.386 189.864 501.077 188.075 502.457 185.962C503.866 183.821 504.838 181.37 505.373 178.609L518.557 178.652C517.853 182.906 516.487 186.822 514.458 190.4C512.458 193.949 509.88 197.02 506.725 199.612C503.598 202.176 500.02 204.162 495.991 205.57C491.963 206.979 487.568 207.683 482.807 207.683C475.313 207.683 468.636 205.908 462.776 202.359C456.916 198.781 452.296 193.667 448.915 187.019C445.563 180.37 443.887 172.44 443.887 163.227C443.887 153.987 445.577 146.056 448.958 139.436C452.338 132.787 456.959 127.688 462.818 124.138C468.678 120.56 475.341 118.771 482.807 118.771C487.399 118.771 491.681 119.433 495.653 120.757C499.654 122.053 503.246 123.969 506.429 126.505C509.613 129.012 512.247 132.083 514.332 135.717C516.416 139.323 517.825 143.45 518.557 148.099ZM530.613 206.5V119.955H543.67V161.283H544.727L581.027 119.955H597.466L562.56 158.917L597.592 206.5H581.872L553.897 167.833L543.67 179.581V206.5H530.613Z" fill="#6142DA"/>
</svg>
