<svg width="669" height="324" viewBox="0 0 669 324" fill="none" xmlns="http://www.w3.org/2000/svg">
<path d="M300.186 162.227C300.186 171.468 298.496 179.412 295.115 186.061C291.734 192.682 287.1 197.781 281.212 201.359C275.352 204.908 268.689 206.683 261.224 206.683C253.73 206.683 247.039 204.908 241.151 201.359C235.291 197.781 230.671 192.667 227.29 186.019C223.909 179.37 222.219 171.44 222.219 162.227C222.219 152.987 223.909 145.056 227.29 138.436C230.671 131.787 235.291 126.688 241.151 123.138C247.039 119.56 253.73 117.771 261.224 117.771C268.689 117.771 275.352 119.56 281.212 123.138C287.1 126.688 291.734 131.787 295.115 138.436C298.496 145.056 300.186 152.987 300.186 162.227ZM287.255 162.227C287.255 155.184 286.114 149.254 283.832 144.436C281.578 139.591 278.479 135.928 274.535 133.449C270.619 130.942 266.182 129.688 261.224 129.688C256.237 129.688 251.786 130.942 247.87 133.449C243.954 135.928 240.855 139.591 238.573 144.436C236.319 149.254 235.192 155.184 235.192 162.227C235.192 169.27 236.319 175.215 238.573 180.06C240.855 184.878 243.954 188.54 247.87 191.048C251.786 193.527 256.237 194.766 261.224 194.766C266.182 194.766 270.619 193.527 274.535 191.048C278.479 188.54 281.578 184.878 283.832 180.06C286.114 175.215 287.255 169.27 287.255 162.227ZM360.099 141.69C359.648 137.689 357.789 134.59 354.521 132.393C351.253 130.167 347.14 129.054 342.181 129.054C338.632 129.054 335.561 129.618 332.969 130.745C330.377 131.843 328.363 133.365 326.926 135.309C325.517 137.224 324.813 139.408 324.813 141.859C324.813 143.915 325.292 145.69 326.25 147.183C327.236 148.676 328.518 149.93 330.095 150.944C331.701 151.93 333.42 152.761 335.251 153.438C337.082 154.085 338.843 154.621 340.533 155.043L348.985 157.241C351.746 157.917 354.577 158.833 357.479 159.988C360.381 161.143 363.071 162.664 365.55 164.551C368.029 166.439 370.03 168.777 371.551 171.566C373.1 174.355 373.875 177.694 373.875 181.582C373.875 186.484 372.607 190.836 370.072 194.64C367.565 198.443 363.916 201.443 359.127 203.641C354.366 205.838 348.605 206.937 341.843 206.937C335.364 206.937 329.757 205.908 325.024 203.852C320.291 201.795 316.587 198.879 313.91 195.104C311.234 191.301 309.755 186.794 309.473 181.582H322.573C322.827 184.709 323.841 187.315 325.616 189.4C327.419 191.456 329.715 192.991 332.504 194.006C335.321 194.992 338.406 195.485 341.759 195.485C345.449 195.485 348.731 194.907 351.605 193.752C354.507 192.569 356.789 190.935 358.451 188.85C360.113 186.737 360.944 184.272 360.944 181.455C360.944 178.891 360.212 176.792 358.747 175.158C357.31 173.524 355.352 172.172 352.873 171.102C350.422 170.031 347.647 169.087 344.548 168.27L334.321 165.481C327.391 163.594 321.897 160.819 317.84 157.156C313.812 153.494 311.797 148.648 311.797 142.619C311.797 137.633 313.15 133.28 315.854 129.561C318.559 125.843 322.221 122.955 326.841 120.898C331.462 118.814 336.674 117.771 342.477 117.771C348.337 117.771 353.507 118.8 357.986 120.856C362.494 122.913 366.043 125.744 368.635 129.35C371.227 132.928 372.579 137.041 372.692 141.69H360.099ZM433.112 141.69C432.661 137.689 430.802 134.59 427.534 132.393C424.266 130.167 420.153 129.054 415.194 129.054C411.645 129.054 408.574 129.618 405.982 130.745C403.39 131.843 401.376 133.365 399.939 135.309C398.53 137.224 397.826 139.408 397.826 141.859C397.826 143.915 398.305 145.69 399.263 147.183C400.249 148.676 401.531 149.93 403.108 150.944C404.714 151.93 406.433 152.761 408.264 153.438C410.095 154.085 411.856 154.621 413.546 155.043L421.998 157.241C424.759 157.917 427.59 158.833 430.492 159.988C433.394 161.143 436.084 162.664 438.563 164.551C441.042 166.439 443.043 168.777 444.564 171.566C446.113 174.355 446.888 177.694 446.888 181.582C446.888 186.484 445.62 190.836 443.085 194.64C440.578 198.443 436.929 201.443 432.14 203.641C427.379 205.838 421.618 206.937 414.856 206.937C408.377 206.937 402.77 205.908 398.037 203.852C393.304 201.795 389.6 198.879 386.923 195.104C384.247 191.301 382.768 186.794 382.486 181.582H395.586C395.84 184.709 396.854 187.315 398.629 189.4C400.432 191.456 402.728 192.991 405.517 194.006C408.334 194.992 411.419 195.485 414.772 195.485C418.462 195.485 421.744 194.907 424.618 193.752C427.52 192.569 429.802 190.935 431.464 188.85C433.126 186.737 433.957 184.272 433.957 181.455C433.957 178.891 433.225 176.792 431.76 175.158C430.323 173.524 428.365 172.172 425.886 171.102C423.435 170.031 420.66 169.087 417.561 168.27L407.334 165.481C400.404 163.594 394.91 160.819 390.853 157.156C386.825 153.494 384.81 148.648 384.81 142.619C384.81 137.633 386.163 133.28 388.867 129.561C391.572 125.843 395.234 122.955 399.854 120.898C404.475 118.814 409.687 117.771 415.49 117.771C421.35 117.771 426.52 118.8 430.999 120.856C435.507 122.913 439.056 125.744 441.648 129.35C444.24 132.928 445.592 137.041 445.705 141.69H433.112Z" fill="#EDEBDF"/>
</svg>
