<svg width="669" height="324" viewBox="0 0 669 324" fill="none" xmlns="http://www.w3.org/2000/svg">
<rect width="669" height="324" rx="14" fill="#1F1F1F"/>
<rect x="269.436" y="195.052" width="16.4357" height="16.4357" fill="#6142DA"/>
<rect x="285.871" y="211.488" width="16.4357" height="16.4357" fill="#6142DA"/>
<rect x="302.307" y="227.924" width="16.4357" height="16.4357" fill="#6142DA"/>
<rect x="318.743" y="227.924" width="16.4357" height="16.4357" fill="#6142DA"/>
<rect x="326.961" y="201.395" width="16.4357" height="16.4357" fill="#6142DA"/>
<rect x="346.539" y="150.792" width="21.5107" height="19.6065" fill="#6142DA"/>
<rect x="302.307" y="148.915" width="21.5107" height="19.6065" fill="#6142DA"/>
<rect x="346.539" y="131.185" width="21.5107" height="19.6065" fill="#6142DA"/>
<rect x="302.307" y="129.308" width="21.5107" height="19.6065" fill="#6142DA"/>
<rect x="310.524" y="201.395" width="16.4357" height="16.4357" fill="#6142DA"/>
<rect x="294.089" y="184.958" width="16.4357" height="16.4357" fill="#6142DA"/>
<rect x="277.653" y="168.522" width="16.4357" height="16.4357" fill="#6142DA"/>
<rect x="335.179" y="227.924" width="16.4357" height="16.4357" fill="#6142DA"/>
<rect x="343.396" y="201.395" width="16.4357" height="16.4357" fill="#6142DA"/>
<rect x="359.832" y="184.958" width="16.4357" height="16.4357" fill="#6142DA"/>
<rect x="376.268" y="168.522" width="16.4357" height="16.4357" fill="#6142DA"/>
<rect x="368.05" y="211.488" width="16.4357" height="16.4357" fill="#6142DA"/>
<rect x="351.614" y="227.924" width="16.4357" height="16.4357" fill="#6142DA"/>
<rect x="384.485" y="195.052" width="16.4357" height="16.4357" fill="#6142DA"/>
<rect x="400.921" y="178.616" width="16.4357" height="16.4357" fill="#6142DA"/>
<rect x="400.921" y="162.18" width="16.4357" height="16.4357" fill="#6142DA"/>
<rect x="400.921" y="145.744" width="16.4357" height="16.4357" fill="#6142DA"/>
<rect x="400.921" y="129.308" width="16.4357" height="16.4357" fill="#6142DA"/>
<rect x="384.485" y="112.872" width="16.4357" height="16.4357" fill="#6142DA"/>
<rect x="368.05" y="96.4355" width="16.4357" height="16.4357" fill="#6142DA"/>
<rect x="351.614" y="80" width="16.4357" height="16.4357" fill="#6142DA"/>
<rect x="335.179" y="80" width="16.4357" height="16.4357" fill="#6142DA"/>
<rect x="318.743" y="80" width="16.4357" height="16.4357" fill="#6142DA"/>
<rect x="302.307" y="80" width="16.4357" height="16.4357" fill="#6142DA"/>
<rect x="285.871" y="96.4355" width="16.4357" height="16.4357" fill="#6142DA"/>
<rect x="269.436" y="112.872" width="16.4357" height="16.4357" fill="#6142DA"/>
<rect x="253" y="129.308" width="16.4357" height="16.4357" fill="#6142DA"/>
<rect x="253" y="145.744" width="16.4357" height="16.4357" fill="#6142DA"/>
<rect x="253" y="162.18" width="16.4357" height="16.4357" fill="#6142DA"/>
<rect x="253" y="178.616" width="16.4357" height="16.4357" fill="#6142DA"/>
</svg>
