<svg width="669" height="324" viewBox="0 0 669 324" fill="none" xmlns="http://www.w3.org/2000/svg">
<path d="M219.508 118.955H235.355L262.908 186.23H263.922L291.474 118.955H307.321V205.5H294.897V142.873H294.094L268.57 205.373H258.259L232.735 142.831H231.932V205.5H219.508V118.955ZM322.736 205.5V118.955H376.996V130.195H335.794V156.565H374.165V167.763H335.794V194.259H377.503V205.5H322.736ZM390.868 205.5V118.955H421.717C428.422 118.955 433.986 120.11 438.409 122.42C442.86 124.73 446.185 127.927 448.382 132.012C450.579 136.069 451.678 140.76 451.678 146.085C451.678 151.381 450.565 156.043 448.34 160.072C446.142 164.073 442.818 167.186 438.367 169.411C433.944 171.637 428.38 172.75 421.675 172.75H398.306V161.509H420.491C424.717 161.509 428.154 160.903 430.802 159.692C433.479 158.48 435.437 156.72 436.676 154.409C437.916 152.099 438.536 149.324 438.536 146.085C438.536 142.817 437.902 139.985 436.634 137.591C435.395 135.196 433.437 133.365 430.76 132.097C428.112 130.801 424.633 130.153 420.322 130.153H403.926V205.5H390.868ZM433.592 166.453L454.974 205.5H440.099L419.139 166.453H433.592Z" fill="#EDEBDF"/>
</svg>
