<svg width="669" height="324" viewBox="0 0 669 324" fill="none" xmlns="http://www.w3.org/2000/svg">
<path d="M215.008 118.955H230.855L258.408 186.23H259.422L286.974 118.955H302.821V205.5H290.397V142.873H289.594L264.07 205.373H253.759L228.235 142.831H227.432V205.5H215.008V118.955ZM318.236 205.5V118.955H372.496V130.195H331.294V156.565H369.665V167.763H331.294V194.259H373.003V205.5H318.236ZM414.386 205.5H386.368V118.955H415.273C423.753 118.955 431.035 120.687 437.121 124.152C443.206 127.589 447.868 132.534 451.108 138.985C454.376 145.408 456.01 153.114 456.01 162.1C456.01 171.116 454.362 178.863 451.066 185.343C447.798 191.822 443.065 196.809 436.867 200.302C430.669 203.767 423.175 205.5 414.386 205.5ZM399.426 194.09H413.667C420.26 194.09 425.739 192.851 430.106 190.371C434.472 187.864 437.74 184.244 439.91 179.511C442.079 174.75 443.164 168.946 443.164 162.1C443.164 155.311 442.079 149.55 439.91 144.817C437.769 140.084 434.571 136.492 430.317 134.041C426.063 131.59 420.781 130.364 414.47 130.364H399.426V194.09Z" fill="#6142DA"/>
</svg>
